<?xml version="1.0" encoding="UTF-8" standalone="no"?>
<!DOCTYPE svg PUBLIC "-//W3C//DTD SVG 1.1//EN" "http://www.w3.org/Graphics/SVG/1.1/DTD/svg11.dtd">
<!-- Created with Vectornator (http://vectornator.io/) -->
<svg height="100%" stroke-miterlimit="10" style="fill-rule:nonzero;clip-rule:evenodd;stroke-linecap:round;stroke-linejoin:round;" version="1.1" viewBox="0 0 227.809 290.327" width="100%" xml:space="preserve" xmlns="http://www.w3.org/2000/svg" xmlns:vectornator="http://vectornator.io" xmlns:xlink="http://www.w3.org/1999/xlink">
<defs/>
<g id="Layer-1" vectornator:layerName="Layer 1">
<path d="M119.953 254.397C147.749 241.819 213.319 202.949 213.319 116.262L213.319 63.8905C213.319 49.1346 213.319 41.7435 210.442 36.1078C207.908 31.1391 203.865 27.1008 198.893 24.5723C193.258 21.6951 185.867 21.6951 171.084 21.6951L44.3791 21.6951C29.5968 21.6951 22.2057 21.6951 16.5567 24.5723C11.5901 27.103 7.55202 31.1411 5.02129 36.1078C2.14403 41.7567 2.14403 49.1478 2.14403 63.9301L2.14403 116.262C2.14403 202.949 67.714 241.819 95.5099 254.397C98.4532 255.743 99.9314 256.403 103.271 256.971C105.382 257.34 110.107 257.34 112.206 256.971C115.532 256.403 116.997 255.743 119.927 254.41L119.953 254.397Z" fill="#000000" fill-rule="nonzero" opacity="1" stroke="#000000" stroke-linecap="round" stroke-linejoin="round" stroke-width="2" vectornator:layerName="path 14"/>
<path d="M157.709 163.982C154.166 164 150.693 164.973 147.656 166.798L133.428 152.57L144.839 141.158C148.725 137.271 148.725 130.971 144.839 127.084L114.979 97.2239C111.092 93.3382 104.792 93.3382 100.905 97.2239L71.0447 127.084C67.159 130.971 67.159 137.271 71.0447 141.158L82.4563 152.57L68.2278 166.798C59.5048 161.623 48.2933 163.749 42.0709 171.759C35.8486 179.769 36.561 191.158 43.7331 198.33C50.9052 205.502 62.2943 206.215 70.3043 199.992C78.3143 193.77 80.4405 182.558 75.2649 173.835L89.4933 159.607L100.905 171.019C101.522 171.62 102.215 172.138 102.965 172.561L102.965 193.842L88.0352 193.842L88.0352 233.655L127.849 233.655L127.849 193.842L112.919 193.842L112.919 172.556C113.669 172.135 114.362 171.618 114.979 171.019L126.391 159.607L140.619 173.835C136.087 181.609 137.351 191.459 143.699 197.838C150.046 204.216 159.89 205.526 167.686 201.032C175.482 196.537 179.279 187.361 176.939 178.672C174.599 169.983 166.708 163.954 157.709 163.982M68.1283 183.888C68.1283 189.385 63.672 193.842 58.1749 193.842C52.6777 193.842 48.2214 189.385 48.2214 183.888C48.2214 178.391 52.6777 173.935 58.1749 173.935C63.672 173.935 68.1283 178.391 68.1283 183.888M117.895 203.795L117.895 223.702L97.9886 223.702L97.9886 203.795L117.895 203.795ZM107.942 163.982L78.0817 134.121L107.942 104.261L137.802 134.121L107.942 163.982ZM157.709 193.842C152.212 193.842 147.756 189.385 147.756 183.888C147.756 178.391 152.212 173.935 157.709 173.935C163.206 173.935 167.663 178.391 167.663 183.888C167.663 189.385 163.206 193.842 157.709 193.842" fill="#ffffff" fill-rule="nonzero" opacity="1" stroke="none" vectornator:layerName="path 15"/>
<path d="M107.732 90.4442C105.788 90.4442 104.213 88.8689 104.213 86.9256L104.213 39.1199L91.4524 51.8806C90.066 53.1724 87.9056 53.1343 86.5657 51.7944C85.2258 50.4545 85.1877 48.2941 86.4795 46.9077L105.245 28.142C106.619 26.7699 108.844 26.7699 110.218 28.142L128.984 46.9077C130.276 48.2941 130.238 50.4545 128.898 51.7944C127.558 53.1343 125.397 53.1724 124.011 51.8806L111.25 39.1199L111.25 86.9256C111.25 88.8689 109.675 90.4442 107.732 90.4442" fill="#ffffff" fill-rule="evenodd" opacity="1" stroke="none" vectornator:layerName="path 16"/>
<path d="M175.741 59.8091C177.115 61.1832 177.115 63.4111 175.741 64.7852L141.937 98.5889L159.983 98.5889C161.877 98.6557 163.378 100.21 163.378 102.105C163.378 104 161.877 105.555 159.983 105.622L133.445 105.622C131.503 105.62 129.929 104.047 129.928 102.105L129.928 75.5665C129.995 73.6728 131.55 72.1721 133.445 72.1721C135.34 72.1721 136.894 73.6728 136.961 75.5665L136.961 93.6129L170.765 59.8091C172.139 58.4351 174.367 58.4351 175.741 59.8091" fill="#ffffff" fill-rule="evenodd" opacity="1" stroke="none" vectornator:layerName="path 17"/>
<path d="M39.7226 59.8091C41.0967 58.4351 43.3246 58.4351 44.6986 59.8091L78.5024 93.6129L78.5024 75.5665C78.5692 73.6728 80.1238 72.1721 82.0188 72.1721C83.9137 72.1721 85.4683 73.6728 85.5351 75.5665L85.5351 102.105C85.5339 104.047 83.9603 105.62 82.0188 105.622L55.48 105.622C53.5862 105.555 52.0856 104 52.0856 102.105C52.0856 100.21 53.5862 98.6557 55.48 98.5889L73.5264 98.5889L39.7226 64.7852C38.3485 63.4111 38.3485 61.1832 39.7226 59.8091" fill="#ffffff" fill-rule="evenodd" opacity="1" stroke="none" vectornator:layerName="path 18"/>
<path d="M157.709 163.982C154.166 164 150.693 164.973 147.656 166.798L133.428 152.57L144.839 141.158C148.725 137.271 148.725 130.971 144.839 127.084L114.979 97.2239C111.092 93.3382 104.792 93.3382 100.905 97.2239L71.0447 127.084C67.159 130.971 67.159 137.271 71.0447 141.158L82.4563 152.57L68.2278 166.798C59.5048 161.623 48.2933 163.749 42.0709 171.759C35.8486 179.769 36.561 191.158 43.7331 198.33C50.9052 205.502 62.2943 206.215 70.3043 199.992C78.3143 193.77 80.4405 182.558 75.2649 173.835L89.4933 159.607L100.905 171.019C101.522 171.62 102.215 172.138 102.965 172.561L102.965 193.842L88.0352 193.842L88.0352 233.655L127.849 233.655L127.849 193.842L112.919 193.842L112.919 172.556C113.669 172.135 114.362 171.618 114.979 171.019L126.391 159.607L140.619 173.835C136.087 181.609 137.351 191.459 143.699 197.838C150.046 204.216 159.89 205.526 167.686 201.032C175.482 196.537 179.279 187.361 176.939 178.672C174.599 169.983 166.708 163.954 157.709 163.982M68.1283 183.888C68.1283 189.385 63.672 193.842 58.1749 193.842C52.6777 193.842 48.2214 189.385 48.2214 183.888C48.2214 178.391 52.6777 173.935 58.1749 173.935C63.672 173.935 68.1283 178.391 68.1283 183.888M117.895 203.795L117.895 223.702L97.9886 223.702L97.9886 203.795L117.895 203.795ZM107.942 163.982L78.0817 134.121L107.942 104.261L137.802 134.121L107.942 163.982ZM157.709 193.842C152.212 193.842 147.756 189.385 147.756 183.888C147.756 178.391 152.212 173.935 157.709 173.935C163.206 173.935 167.663 178.391 167.663 183.888C167.663 189.385 163.206 193.842 157.709 193.842" fill="#ffffff" fill-rule="nonzero" opacity="1" stroke="none" vectornator:layerName="path 19"/>
<path d="M107.732 90.4442C105.788 90.4442 104.213 88.8689 104.213 86.9256L104.213 39.1199L91.4524 51.8806C90.066 53.1724 87.9056 53.1343 86.5657 51.7944C85.2258 50.4545 85.1877 48.2941 86.4795 46.9077L105.245 28.142C106.619 26.7699 108.844 26.7699 110.218 28.142L128.984 46.9077C130.276 48.2941 130.238 50.4545 128.898 51.7944C127.558 53.1343 125.397 53.1724 124.011 51.8806L111.25 39.1199L111.25 86.9256C111.25 88.8689 109.675 90.4442 107.732 90.4442" fill="#ffffff" fill-rule="evenodd" opacity="1" stroke="none" vectornator:layerName="path 20"/>
<path d="M175.741 59.8091C177.115 61.1832 177.115 63.4111 175.741 64.7852L141.937 98.5889L159.983 98.5889C161.877 98.6557 163.378 100.21 163.378 102.105C163.378 104 161.877 105.555 159.983 105.622L133.445 105.622C131.503 105.62 129.929 104.047 129.928 102.105L129.928 75.5665C129.995 73.6728 131.55 72.1721 133.445 72.1721C135.34 72.1721 136.894 73.6728 136.961 75.5665L136.961 93.6129L170.765 59.8091C172.139 58.4351 174.367 58.4351 175.741 59.8091" fill="#ffffff" fill-rule="evenodd" opacity="1" stroke="none" vectornator:layerName="path 21"/>
<path d="M39.7226 59.8091C41.0967 58.4351 43.3246 58.4351 44.6986 59.8091L78.5024 93.6129L78.5024 75.5665C78.5692 73.6728 80.1238 72.1721 82.0188 72.1721C83.9137 72.1721 85.4683 73.6728 85.5351 75.5665L85.5351 102.105C85.5339 104.047 83.9603 105.62 82.0188 105.622L55.48 105.622C53.5862 105.555 52.0856 104 52.0856 102.105C52.0856 100.21 53.5862 98.6557 55.48 98.5889L73.5264 98.5889L39.7226 64.7852C38.3485 63.4111 38.3485 61.1832 39.7226 59.8091" fill="#ffffff" fill-rule="evenodd" opacity="1" stroke="none" vectornator:layerName="path 22"/>
</g>
</svg>
