<?xml version="1.0" encoding="UTF-8" standalone="no"?>
<!DOCTYPE svg PUBLIC "-//W3C//DTD SVG 1.1//EN" "http://www.w3.org/Graphics/SVG/1.1/DTD/svg11.dtd">
<!-- Created with Vectornator (http://vectornator.io/) -->
<svg height="100%" stroke-miterlimit="10" style="fill-rule:nonzero;clip-rule:evenodd;stroke-linecap:round;stroke-linejoin:round;" version="1.1" viewBox="0 0 11.3916 12.7604" width="100%" xml:space="preserve" xmlns="http://www.w3.org/2000/svg" xmlns:vectornator="http://vectornator.io" xmlns:xlink="http://www.w3.org/1999/xlink">
<defs/>
<g id="Layer-1" vectornator:layerName="Layer 1">
<g opacity="1" vectornator:layerName="logo copy.svg">
<path d="M6.30746 12.156C7.721 11.5164 11.0555 9.53965 11.0555 5.13125L11.0555 2.46794C11.0555 1.71754 11.0555 1.34167 10.9092 1.05507C10.7803 0.802394 10.5747 0.597029 10.3219 0.468444C10.0353 0.322126 9.65946 0.322126 8.90768 0.322126L2.4642 0.322126C1.71246 0.322126 1.33659 0.322126 1.04932 0.468444C0.796744 0.597141 0.59139 0.802495 0.462692 1.05507C0.316371 1.34234 0.316371 1.71821 0.316371 2.46995L0.316371 5.13125C0.316371 9.53965 3.65088 11.5164 5.06442 12.156C5.2141 12.2245 5.28927 12.258 5.4591 12.2869C5.56646 12.3057 5.80674 12.3057 5.91349 12.2869C6.08263 12.258 6.15713 12.2245 6.30613 12.1567L6.30746 12.156Z" fill="#000000" fill-rule="nonzero" opacity="1" stroke="none" vectornator:layerName="path 14"/>
<path d="M8.22751 7.55802C8.04733 7.55893 7.87071 7.60841 7.71627 7.70122L6.99272 6.97767L7.57301 6.39732C7.77063 6.19965 7.77063 5.87927 7.57301 5.6816L6.05451 4.16308C5.85684 3.96548 5.53645 3.96548 5.33878 4.16308L3.82026 5.6816C3.62266 5.87927 3.62266 6.19965 3.82026 6.39732L4.40059 6.97767L3.67701 7.70122C3.23341 7.43805 2.66326 7.54617 2.34682 7.95351C2.03039 8.36085 2.06662 8.94003 2.43135 9.30476C2.79608 9.66948 3.37527 9.70574 3.78261 9.38928C4.18995 9.07286 4.29808 8.50268 4.03488 8.05908L4.75845 7.33553L5.33878 7.91588C5.37016 7.94644 5.4054 7.97278 5.44354 7.99429L5.44354 9.07652L4.6843 9.07652L4.6843 11.1012L6.709 11.1012L6.709 9.07652L5.94975 9.07652L5.94975 7.99404C5.98789 7.97263 6.02313 7.94634 6.05451 7.91588L6.63485 7.33553L7.35841 8.05908C7.12794 8.45442 7.19222 8.95534 7.51504 9.27974C7.83781 9.60409 8.33842 9.6707 8.73488 9.44217C9.13134 9.21358 9.32443 8.74694 9.20543 8.30507C9.08644 7.86319 8.68514 7.55659 8.22751 7.55802M3.67195 8.57032C3.67195 8.84987 3.44533 9.07652 3.16578 9.07652C2.88622 9.07652 2.6596 8.84987 2.6596 8.57032C2.6596 8.29078 2.88622 8.06417 3.16578 8.06417C3.44533 8.06417 3.67195 8.29078 3.67195 8.57032M6.2028 9.58268L6.2028 10.595L5.19047 10.595L5.19047 9.58268L6.2028 9.58268ZM5.69664 7.55802L4.17812 6.03946L5.69664 4.52095L7.21515 6.03946L5.69664 7.55802ZM8.22751 9.07652C7.94796 9.07652 7.72136 8.84987 7.72136 8.57032C7.72136 8.29078 7.94796 8.06417 8.22751 8.06417C8.50705 8.06417 8.73371 8.29078 8.73371 8.57032C8.73371 8.84987 8.50705 9.07652 8.22751 9.07652" fill="#ffffff" fill-rule="nonzero" opacity="1" stroke="none" vectornator:layerName="path 15"/>
<path d="M5.68597 3.81831C5.5871 3.81831 5.50701 3.7382 5.50701 3.63937L5.50701 1.20825L4.85808 1.85719C4.78757 1.92288 4.67771 1.92094 4.60957 1.8528C4.54143 1.78466 4.53949 1.6748 4.60519 1.60429L5.55949 0.649978C5.62936 0.580201 5.74252 0.580201 5.81239 0.649978L6.76672 1.60429C6.83242 1.6748 6.83049 1.78466 6.76235 1.8528C6.6942 1.92094 6.58431 1.92288 6.51382 1.85719L5.86487 1.20825L5.86487 3.63937C5.86487 3.7382 5.78478 3.81831 5.68597 3.81831" fill="#ffffff" fill-rule="evenodd" opacity="1" stroke="none" vectornator:layerName="path 16"/>
<path d="M9.14451 2.26038C9.21438 2.33026 9.21438 2.44356 9.14451 2.51344L7.42543 4.2325L8.34315 4.2325C8.43947 4.2359 8.5158 4.31494 8.5158 4.41131C8.5158 4.50768 8.43947 4.58676 8.34315 4.59016L6.99358 4.59016C6.89482 4.59006 6.81478 4.51007 6.81473 4.41131L6.81473 3.06171C6.81813 2.96541 6.89721 2.8891 6.99358 2.8891C7.08995 2.8891 7.16898 2.96541 7.17238 3.06171L7.17238 3.97945L8.89146 2.26038C8.96133 2.19051 9.07464 2.19051 9.14451 2.26038" fill="#ffffff" fill-rule="evenodd" opacity="1" stroke="none" vectornator:layerName="path 17"/>
<path d="M2.2274 2.26038C2.29728 2.19051 2.41058 2.19051 2.48045 2.26038L4.19952 3.97945L4.19952 3.06171C4.20291 2.96541 4.28197 2.8891 4.37834 2.8891C4.4747 2.8891 4.55376 2.96541 4.55716 3.06171L4.55716 4.41131C4.5571 4.51007 4.47707 4.59006 4.37834 4.59016L3.02873 4.59016C2.93242 4.58676 2.85611 4.50768 2.85611 4.41131C2.85611 4.31494 2.93242 4.2359 3.02873 4.2325L3.94647 4.2325L2.2274 2.51344C2.15752 2.44356 2.15752 2.33026 2.2274 2.26038" fill="#ffffff" fill-rule="evenodd" opacity="1" stroke="none" vectornator:layerName="path 18"/>
<path d="M8.22751 7.55802C8.04733 7.55893 7.87071 7.60841 7.71627 7.70122L6.99272 6.97767L7.57301 6.39732C7.77063 6.19965 7.77063 5.87927 7.57301 5.6816L6.05451 4.16308C5.85684 3.96548 5.53645 3.96548 5.33878 4.16308L3.82026 5.6816C3.62266 5.87927 3.62266 6.19965 3.82026 6.39732L4.40059 6.97767L3.67701 7.70122C3.23341 7.43805 2.66326 7.54617 2.34682 7.95351C2.03039 8.36085 2.06662 8.94003 2.43135 9.30476C2.79608 9.66948 3.37527 9.70574 3.78261 9.38928C4.18995 9.07286 4.29808 8.50268 4.03488 8.05908L4.75845 7.33553L5.33878 7.91588C5.37016 7.94644 5.4054 7.97278 5.44354 7.99429L5.44354 9.07652L4.6843 9.07652L4.6843 11.1012L6.709 11.1012L6.709 9.07652L5.94975 9.07652L5.94975 7.99404C5.98789 7.97263 6.02313 7.94634 6.05451 7.91588L6.63485 7.33553L7.35841 8.05908C7.12794 8.45442 7.19222 8.95534 7.51504 9.27974C7.83781 9.60409 8.33842 9.6707 8.73488 9.44217C9.13134 9.21358 9.32443 8.74694 9.20543 8.30507C9.08644 7.86319 8.68514 7.55659 8.22751 7.55802M3.67195 8.57032C3.67195 8.84987 3.44533 9.07652 3.16578 9.07652C2.88622 9.07652 2.6596 8.84987 2.6596 8.57032C2.6596 8.29078 2.88622 8.06417 3.16578 8.06417C3.44533 8.06417 3.67195 8.29078 3.67195 8.57032M6.2028 9.58268L6.2028 10.595L5.19047 10.595L5.19047 9.58268L6.2028 9.58268ZM5.69664 7.55802L4.17812 6.03946L5.69664 4.52095L7.21515 6.03946L5.69664 7.55802ZM8.22751 9.07652C7.94796 9.07652 7.72136 8.84987 7.72136 8.57032C7.72136 8.29078 7.94796 8.06417 8.22751 8.06417C8.50705 8.06417 8.73371 8.29078 8.73371 8.57032C8.73371 8.84987 8.50705 9.07652 8.22751 9.07652" fill="#ffffff" fill-rule="nonzero" opacity="1" stroke="none" vectornator:layerName="path 19"/>
<path d="M5.68597 3.81831C5.5871 3.81831 5.50701 3.7382 5.50701 3.63937L5.50701 1.20825L4.85808 1.85719C4.78757 1.92288 4.67771 1.92094 4.60957 1.8528C4.54143 1.78466 4.53949 1.6748 4.60519 1.60429L5.55949 0.649978C5.62936 0.580201 5.74252 0.580201 5.81239 0.649978L6.76672 1.60429C6.83242 1.6748 6.83049 1.78466 6.76235 1.8528C6.6942 1.92094 6.58431 1.92288 6.51382 1.85719L5.86487 1.20825L5.86487 3.63937C5.86487 3.7382 5.78478 3.81831 5.68597 3.81831" fill="#ffffff" fill-rule="evenodd" opacity="1" stroke="none" vectornator:layerName="path 20"/>
<path d="M9.14451 2.26038C9.21438 2.33026 9.21438 2.44356 9.14451 2.51344L7.42543 4.2325L8.34315 4.2325C8.43947 4.2359 8.5158 4.31494 8.5158 4.41131C8.5158 4.50768 8.43947 4.58676 8.34315 4.59016L6.99358 4.59016C6.89482 4.59006 6.81478 4.51007 6.81473 4.41131L6.81473 3.06171C6.81813 2.96541 6.89721 2.8891 6.99358 2.8891C7.08995 2.8891 7.16898 2.96541 7.17238 3.06171L7.17238 3.97945L8.89146 2.26038C8.96133 2.19051 9.07464 2.19051 9.14451 2.26038" fill="#ffffff" fill-rule="evenodd" opacity="1" stroke="none" vectornator:layerName="path 21"/>
<path d="M2.2274 2.26038C2.29728 2.19051 2.41058 2.19051 2.48045 2.26038L4.19952 3.97945L4.19952 3.06171C4.20291 2.96541 4.28197 2.8891 4.37834 2.8891C4.4747 2.8891 4.55376 2.96541 4.55716 3.06171L4.55716 4.41131C4.5571 4.51007 4.47707 4.59006 4.37834 4.59016L3.02873 4.59016C2.93242 4.58676 2.85611 4.50768 2.85611 4.41131C2.85611 4.31494 2.93242 4.2359 3.02873 4.2325L3.94647 4.2325L2.2274 2.51344C2.15752 2.44356 2.15752 2.33026 2.2274 2.26038" fill="#ffffff" fill-rule="evenodd" opacity="1" stroke="none" vectornator:layerName="path 22"/>
</g>
</g>
</svg>
